<?xml version="1.0" encoding="UTF-8"?>
<!DOCTYPE svg PUBLIC "-//W3C//DTD SVG 1.1//EN" "http://www.w3.org/Graphics/SVG/1.1/DTD/svg11.dtd">
<!-- Creator: CorelDRAW 2018 (64 Bit Versão de avaliação) -->
<svg xmlns="http://www.w3.org/2000/svg" xml:space="preserve" width="4.8835mm" height="7.33mm" version="1.1" style="shape-rendering:geometricPrecision; text-rendering:geometricPrecision; image-rendering:optimizeQuality; fill-rule:evenodd; clip-rule:evenodd"
viewBox="0 0 8.08 12.12"
 xmlns:xlink="http://www.w3.org/1999/xlink">
 <defs>
  <style type="text/css">
   <![CDATA[
    .fil0 {fill:#1D809F}
   ]]>
  </style>
 </defs>
 <g id="Camada_x0020_1">
  <metadata id="CorelCorpID_0Corel-Layer"/>
  <path class="fil0" d="M5.21 10.79l-0.86 1.04c-0.11,0.12 -0.2,0.16 -0.3,0.29 -0.42,-0.21 -1.88,-2.18 -2.25,-2.79 -0.61,-0.99 -1.24,-2.13 -1.58,-3.46 -1.47,-5.74 4.78,-7.59 7.12,-4.14 1.94,2.86 -0.36,6.72 -2.12,9.05zm-2.73 -3.36c-0.01,0.34 -0.11,0.84 0.27,0.84 0.39,0 0.31,-0.34 0.29,-0.84 0.46,0.01 1.75,-0.06 2.1,0.02 -0.01,0.35 -0.12,0.83 0.29,0.82 0.41,-0 0.3,-0.47 0.29,-0.82 0.61,-0.27 0.49,-0.22 0.49,-1.29 0,-0.73 -0.05,-1.88 -0.14,-2.61 -0.04,-0.28 -0.16,-0.39 -0.4,-0.5 -0.52,-0.23 -0.91,-0.33 -1.54,-0.33 -0.64,0 -1,0.05 -1.54,0.29 -0.61,0.27 -0.48,0.4 -0.56,1.28 -0.04,0.44 -0.12,2.25 -0.07,2.7 0.03,0.29 0.21,0.41 0.5,0.44zm3.01 -1.4c-0.31,0.16 -0.13,0.67 0.26,0.51 0.34,-0.14 0.11,-0.69 -0.26,-0.51zm-3.05 0.01c-0.11,0.06 -0.12,0.04 -0.15,0.16 -0.03,0.1 -0.01,0.17 0.03,0.24 0.18,0.29 0.67,0.05 0.51,-0.3 -0.05,-0.12 -0.24,-0.19 -0.4,-0.11zm0.8 -2.39c0.38,0 1.7,0.05 1.97,-0.05 0.08,-0.22 0.02,-0.41 -0.26,-0.41l-1.71 0c-0.41,0 -0.42,0.46 0,0.46zm-0.7 0.2c-0.26,0.11 -0.24,0.7 -0.26,1.02 -0.04,0.54 0.36,0.41 0.82,0.41l2.57 -0c0.37,-0.04 0.24,-0.48 0.2,-0.92 -0.06,-0.63 -0.16,-0.53 -0.78,-0.53 -0.34,0 -2.4,-0.03 -2.55,0.03z"/>
 </g>
</svg>
