<?xml version="1.0" encoding="UTF-8"?>
<!DOCTYPE svg PUBLIC "-//W3C//DTD SVG 1.1//EN" "http://www.w3.org/Graphics/SVG/1.1/DTD/svg11.dtd">
<!-- Creator: CorelDRAW 2018 (64 Bit Versão de avaliação) -->
<svg xmlns="http://www.w3.org/2000/svg" xml:space="preserve" width="4.8835mm" height="7.33mm" version="1.1" style="shape-rendering:geometricPrecision; text-rendering:geometricPrecision; image-rendering:optimizeQuality; fill-rule:evenodd; clip-rule:evenodd"
viewBox="0 0 7.83 11.75"
 xmlns:xlink="http://www.w3.org/1999/xlink">
 <defs>
  <style type="text/css">
   <![CDATA[
    .fil1 {fill:#FEFEFE}
    .fil0 {fill:#ECB807}
   ]]>
  </style>
 </defs>
 <g id="Camada_x0020_1">
  <metadata id="CorelCorpID_0Corel-Layer"/>
  <path class="fil0" d="M5.06 10.46l-0.83 1.01c-0.11,0.12 -0.19,0.16 -0.29,0.28 -0.41,-0.2 -1.82,-2.11 -2.18,-2.7 -0.59,-0.96 -1.21,-2.07 -1.53,-3.36 -1.42,-5.56 4.63,-7.36 6.9,-4.01 1.88,2.77 -0.35,6.51 -2.06,8.78z"/>
  <path class="fil1" d="M2.41 7.2c-0.01,0.33 -0.11,0.81 0.26,0.82 0.37,0 0.3,-0.33 0.28,-0.82 0.44,0.01 1.7,-0.06 2.04,0.02 -0.01,0.34 -0.11,0.8 0.28,0.8 0.4,-0 0.29,-0.46 0.28,-0.8 0.59,-0.26 0.48,-0.22 0.48,-1.25 0,-0.7 -0.04,-1.82 -0.14,-2.53 -0.04,-0.27 -0.16,-0.38 -0.38,-0.48 -0.51,-0.22 -0.88,-0.32 -1.49,-0.32 -0.62,0 -0.97,0.05 -1.49,0.28 -0.59,0.26 -0.46,0.39 -0.54,1.24 -0.04,0.42 -0.12,2.18 -0.07,2.61 0.03,0.28 0.2,0.4 0.49,0.42zm2.92 -1.36c-0.3,0.15 -0.13,0.65 0.25,0.49 0.33,-0.14 0.1,-0.67 -0.25,-0.49zm-2.96 0.01c-0.11,0.06 -0.11,0.04 -0.14,0.15 -0.03,0.1 -0.01,0.17 0.03,0.24 0.17,0.28 0.65,0.05 0.49,-0.29 -0.05,-0.11 -0.23,-0.19 -0.38,-0.1zm0.77 -2.32c0.37,0 1.65,0.04 1.91,-0.05 0.08,-0.21 0.02,-0.39 -0.26,-0.39l-1.66 0c-0.4,0 -0.41,0.44 0,0.44zm-0.68 0.19c-0.25,0.11 -0.23,0.68 -0.25,0.99 -0.04,0.52 0.35,0.4 0.8,0.4l2.49 -0c0.36,-0.04 0.23,-0.46 0.19,-0.9 -0.06,-0.61 -0.16,-0.51 -0.75,-0.51 -0.33,0 -2.33,-0.03 -2.47,0.03z"/>
 </g>
</svg>
