<?xml version="1.0" encoding="UTF-8"?>
<!DOCTYPE svg PUBLIC "-//W3C//DTD SVG 1.1//EN" "http://www.w3.org/Graphics/SVG/1.1/DTD/svg11.dtd">
<!-- Creator: CorelDRAW 2018 (64 Bit Versão de avaliação) -->
<svg xmlns="http://www.w3.org/2000/svg" xml:space="preserve" width="4.8835mm" height="7.33mm" version="1.1" style="shape-rendering:geometricPrecision; text-rendering:geometricPrecision; image-rendering:optimizeQuality; fill-rule:evenodd; clip-rule:evenodd"
viewBox="0 0 7.67 11.51"
 xmlns:xlink="http://www.w3.org/1999/xlink">
 <defs>
  <style type="text/css">
   <![CDATA[
    .fil1 {fill:#FEFEFE}
    .fil0 {fill:#ED3237}
   ]]>
  </style>
 </defs>
 <g id="Camada_x0020_1">
  <metadata id="CorelCorpID_0Corel-Layer"/>
  <path class="fil0" d="M4.95 10.24l-0.82 0.99c-0.1,0.12 -0.19,0.16 -0.28,0.28 -0.4,-0.2 -1.78,-2.07 -2.14,-2.65 -0.58,-0.94 -1.18,-2.02 -1.5,-3.28 -1.39,-5.44 4.53,-7.2 6.76,-3.93 1.84,2.71 -0.34,6.38 -2.02,8.59zm-2.59 -3.19c-0.01,0.33 -0.11,0.8 0.26,0.8 0.37,0 0.3,-0.32 0.28,-0.8 0.43,0.01 1.67,-0.06 1.99,0.02 -0.01,0.34 -0.11,0.78 0.28,0.78 0.39,-0 0.28,-0.45 0.28,-0.78 0.58,-0.26 0.47,-0.21 0.47,-1.23 0,-0.69 -0.04,-1.78 -0.13,-2.47 -0.03,-0.27 -0.15,-0.37 -0.37,-0.47 -0.5,-0.22 -0.86,-0.31 -1.46,-0.31 -0.61,0 -0.95,0.05 -1.46,0.28 -0.58,0.26 -0.45,0.38 -0.53,1.22 -0.04,0.42 -0.11,2.14 -0.07,2.56 0.03,0.28 0.2,0.39 0.48,0.41zm2.86 -1.33c-0.29,0.15 -0.12,0.63 0.24,0.48 0.32,-0.13 0.1,-0.66 -0.24,-0.48zm-2.89 0.01c-0.11,0.06 -0.11,0.04 -0.14,0.15 -0.02,0.1 -0.01,0.16 0.03,0.23 0.17,0.28 0.64,0.05 0.48,-0.28 -0.05,-0.11 -0.23,-0.18 -0.38,-0.1zm0.76 -2.27c0.36,0 1.62,0.04 1.87,-0.05 0.08,-0.21 0.02,-0.39 -0.25,-0.39l-1.62 0c-0.39,0 -0.4,0.43 0,0.43zm-0.66 0.19c-0.25,0.11 -0.23,0.67 -0.25,0.97 -0.04,0.51 0.34,0.39 0.78,0.39l2.44 -0c0.35,-0.04 0.22,-0.45 0.19,-0.88 -0.06,-0.6 -0.16,-0.5 -0.74,-0.5 -0.32,0 -2.28,-0.03 -2.42,0.03z"/>
  <path class="fil1" d="M2.36 7.05c-0.01,0.33 -0.11,0.8 0.26,0.8 0.37,0 0.3,-0.32 0.28,-0.8 0.43,0.01 1.67,-0.06 1.99,0.02 -0.01,0.34 -0.11,0.78 0.28,0.78 0.39,-0 0.28,-0.45 0.28,-0.78 0.58,-0.26 0.47,-0.21 0.47,-1.23 0,-0.69 -0.04,-1.78 -0.13,-2.47 -0.03,-0.27 -0.15,-0.37 -0.37,-0.47 -0.5,-0.22 -0.86,-0.31 -1.46,-0.31 -0.61,0 -0.95,0.05 -1.46,0.28 -0.58,0.26 -0.45,0.38 -0.53,1.22 -0.04,0.42 -0.11,2.14 -0.07,2.56 0.03,0.28 0.2,0.39 0.48,0.41zm2.86 -1.33c-0.29,0.15 -0.12,0.63 0.24,0.48 0.32,-0.13 0.1,-0.66 -0.24,-0.48zm-2.89 0.01c-0.11,0.06 -0.11,0.04 -0.14,0.15 -0.02,0.1 -0.01,0.16 0.03,0.23 0.17,0.28 0.64,0.05 0.48,-0.28 -0.05,-0.11 -0.23,-0.18 -0.38,-0.1zm0.76 -2.27c0.36,0 1.62,0.04 1.87,-0.05 0.08,-0.21 0.02,-0.39 -0.25,-0.39l-1.62 0c-0.39,0 -0.4,0.43 0,0.43zm-0.66 0.19c-0.25,0.11 -0.23,0.67 -0.25,0.97 -0.04,0.51 0.34,0.39 0.78,0.39l2.44 -0c0.35,-0.04 0.22,-0.45 0.19,-0.88 -0.06,-0.6 -0.16,-0.5 -0.74,-0.5 -0.32,0 -2.28,-0.03 -2.42,0.03z"/>
 </g>
</svg>
