<?xml version="1.0" encoding="UTF-8"?>
<!DOCTYPE svg PUBLIC "-//W3C//DTD SVG 1.1//EN" "http://www.w3.org/Graphics/SVG/1.1/DTD/svg11.dtd">
<!-- Creator: CorelDRAW 2018 (64 Bit Versão de avaliação) -->
<svg xmlns="http://www.w3.org/2000/svg" xml:space="preserve" width="250.698mm" height="79.6521mm" version="1.1" style="shape-rendering:geometricPrecision; text-rendering:geometricPrecision; image-rendering:optimizeQuality; fill-rule:evenodd; clip-rule:evenodd"
viewBox="0 0 23586.64 7493.98"
 xmlns:xlink="http://www.w3.org/1999/xlink">
 <defs>
  <style type="text/css">
   <![CDATA[
    .fil0 {fill:#1D809F}
    .fil1 {fill:#1D809F;fill-rule:nonzero}
   ]]>
  </style>
 </defs>
 <g id="Camada_x0020_1">
  <metadata id="CorelCorpID_0Corel-Layer"/>
  <path class="fil0" d="M-0 2703.3c890.5,-652.37 -385.86,-1836.63 2326.41,-1836.63 0,0 157.49,-332.23 157.49,-332.23 -1169.61,573.79 -2483.9,-1020.97 -2483.9,2168.86z"/>
  <path class="fil1" d="M20035.73 7343.54l55.56 -3499.62c1.99,-126.88 1.93,-269.83 5.61,-429.61 3.74,-159.77 8.47,-303.66 14.14,-432.48 5.61,-128.81 10.34,-274.57 15.01,-438.07 4.68,-163.57 -70.62,-2289.83 -70.62,-2424.25 0,-36.63 791.04,4.32 839.53,4.5l1313.66 6.48c111.81,0.47 452.27,-25.36 565.2,1.58 420.9,100.43 426.75,293.9 426.75,293.9 107.02,63.09 264.17,748 280.81,868.63 78.22,567.24 105.27,1869.16 105.27,1915.72 0,216.2 -46.38,408.75 -138.16,577.23 -91.48,168.01 -214.97,346.13 -412.72,474.77 -213.18,138.68 -497.32,185.19 -815.12,203.99l-88.33 0c-73.38,15.02 -146.7,22.55 -220.01,22.55l-220.94 0c-10.34,0 -19.75,1.86 -27.28,5.66 0,481.31 149.25,2546.23 164.27,2791.64 -202.48,79.33 -383.46,-33.06 -884.63,-0.93l-907.99 58.3zm1492.01 -3825.12c0.11,29.67 45.62,11.74 98.55,5.49 889.65,-104.97 1058.36,-1883 189.5,-1950.76 -47.84,-3.74 -152.18,-1.28 -226.43,-1.28 1.87,490.83 -62.86,1595.47 -61.62,1946.56z"/>
  <path class="fil1" d="M16029.22 4694.06c90.73,-2699.54 292.74,-4007.93 1014.85,-4404.78l403.5 -135.76 785.73 -42.22c1690.87,174.52 1485.7,3094.69 1485.7,4632.74 0,665.28 -120.34,1208.15 -362.9,1627.52l-109.99 174.66c-84.59,131.84 -189.93,244.71 -315.88,339.72 -126.01,95.08 -259.55,167.65 -400.52,217.41 -1496.91,527.89 -2428.22,-499.32 -2500.49,-2409.27zm1398.66 103.42c0,816.16 123.15,1224.83 369.5,1224.83 67.7,0 125.6,-20.01 176.72,-48.73 522.66,-293.65 530.67,-766.55 532.36,-787.45 72.79,-893.07 521.15,-3305.38 -627.18,-3305.38 -275.44,0 -451.4,2076.87 -451.4,2763.46l0 153.25z"/>
  <path class="fil1" d="M5563.73 119.57l724.45 -9.17c156.91,-1.99 584.36,-0.99 931.19,-8.41 346.77,-7.41 703.65,-5.43 875.7,-5.43 154.63,0 611.06,247.11 790.75,964.08 205.17,818.38 391.99,2238.89 -579.04,2726.92 77.05,32.88 143.83,76.11 200.26,128.75 57.31,53.63 100.54,99.65 131.61,138.21 30.09,38.57 59.18,103.41 87.39,194.59 29.16,91.2 46.09,150.43 51.7,178.65 4.73,29.15 16.94,99.66 35.75,211.53 5.61,25.36 8.48,45.1 10.34,57.37 7.54,74.25 38.56,208.73 94,404.25 55.43,195.53 208.32,1157.45 208.32,1261.79 0,66.77 37.27,1115.79 -3.15,1115.79 -110,0 -1164.4,0 -1164.4,0 -1.64,-114.97 -9.12,-336.31 -27.58,-442.75 -147.03,-846.08 -259.08,-1393.28 -616.08,-2392.71 -14.13,-39.55 -19.74,-69.58 -26.34,-87.39 -6.6,-16.94 -17.88,-38.56 -34.76,-63.04 -16,-24.41 -38.56,-41.36 -66.77,-50.77 -29.15,-9.34 -64.84,-14.07 -109.06,-14.07l-126.89 0c-102.52,3040.04 -76.17,2668.27 -80.61,2995.41 0,0.93 -302.49,28.86 -335.67,30.14 -581.67,22.55 -377.15,13.49 -716.62,21.44l-461.98 -18.82 207.51 -7336.37zm1404.26 3333.3c3.8,3.74 9.41,11.27 16,23.48 7.54,12.21 15.02,21.62 22.55,29.16 7.54,6.54 14.14,11.27 21.61,13.14 55.5,0 110,-5.61 165.5,-17.88 55.44,-11.28 111.88,-31.02 169.18,-59.18 58.3,-27.28 104.4,-69.58 141.02,-126.95 35.75,-56.43 43.64,-124.72 53.63,-203.06 154.57,-1214.81 -261.71,-1435.22 -628.24,-1426.7 -37.85,0.87 21.85,1163.53 21.85,1184.14l0 104.34c0,53.57 2.81,133.49 8.42,239.75 5.66,106.2 8.47,186.12 8.47,239.74z"/>
  <path class="fil1" d="M12183.88 2494.87c0,-32.89 1.87,-81.79 5.61,-146.7 3.8,-65.77 5.66,-110 5.66,-134.42 0,-8.47 -1.86,-41.36 -5.66,-98.72 -3.74,-57.32 -5.61,-106.21 -5.61,-148.5 0,-194.65 87.1,-1860.98 123.79,-1860.98 14.14,0 874.82,1.51 2178.78,-11.1 752.72,-7.3 1092.48,4.79 1466.66,4.79 32.24,0 -61.4,1461.98 -61.4,1673.57l0 77.11c0,95.93 1,236.88 1.93,423.07 1.87,186.13 2.8,328.08 2.8,425.87 0,94.93 -25.41,142.89 -77.11,142.89 -102.47,0 -255.7,-1.87 -459.69,-5.61 -204,-3.8 -357.29,-5.67 -459.75,-5.67l0 2952.01c0,56.96 91.24,1695.83 41.29,1696 -602.58,2.22 -169,7.07 -738.99,0 -370.14,-4.61 -707.68,0 -1076.59,0l5.9 -1740.17c0,-278.31 9.41,-692.9 27.28,-1243.79 18.81,-550.95 28.22,-965.54 28.22,-1244.72 0,-12.27 -0.93,-33.88 -1.87,-63.04 -0.93,-29.15 -0.93,-53.57 -0.93,-71.45 0,-18.81 -1.93,-41.36 -4.73,-68.63 -2.8,-28.16 -7.54,-50.77 -13.14,-67.66 -6.6,-17.88 -15.07,-34.81 -23.54,-52.63 -9.35,-16.94 -21.62,-30.09 -37.57,-38.56 -15.07,-8.47 -33.88,-12.21 -56.43,-12.21l-787.83 0c-51.7,-15.07 -77.05,-141.02 -77.05,-380.77z"/>
  <path class="fil1" d="M9247.83 2232.57c0,-109.99 3.74,-2123.1 13.9,-2140.5 79.45,-136.36 2453.12,-107.73 2788.85,-1.99 0,0 25.52,954.61 25.52,980.03 0,400.63 -206.63,658.55 -206.63,658.55l-1142.43 19.33 14.2 1208.73c389.24,-0.75 32.13,7.6 613.4,-12.2 218.89,-7.48 483.06,27.4 600.54,27.4 51.7,0 -9.58,415.64 8.7,435.8 18.29,20.22 27.23,48.9 27.23,85.59 0,8.41 -1.87,24.41 -5.61,46.04 -3.8,22.54 -5.67,37.61 -5.67,47.02l0 104.34c0,7.54 0.94,22.54 2.8,45.15 1.93,23.48 2.87,43.23 2.87,59.18l0 77.11c0,49.71 -415.53,-26.11 -821.07,-0.58l-441.94 27.87 35.17 702.25c14.14,0 36.68,0.99 65.84,2.86 29.09,1.87 51.7,2.8 65.77,2.8 82.73,0 204.99,-2.8 366.69,-8.47 161.7,-5.67 278.25,-8.48 349.7,-8.48l352.55 0c94.93,0 156.04,11.28 181.45,32.89 9.4,11.34 16.94,21.68 22.54,32.95 -15.95,151.65 -8.29,947.55 -22.54,967.35 -14.02,19.57 73.43,1854.9 33.18,1854.9l-2880.91 0 -44.11 -1893.4 0 -3352.52z"/>
  <path class="fil1" d="M1548.1 5465.09l101.36 -1683.27 290.22 -1938.38c6.6,-44.16 241.39,-853.2 544.23,-1308.98 123.91,-186.47 352.03,-299.28 435.34,-299.28 31.02,0 304.94,-48.78 362.25,-47.02 58.19,1.81 483.36,-26.29 505.91,-26.29 144.76,0 14.25,-5.09 300.91,-10.63 287.54,-5.55 390.77,-14.43 537.4,-14.43 101.53,0 135.29,-10.75 334.5,-7.07 199.27,3.68 163.28,-4.97 273.29,-4.97 15.02,0 150.6,-30.73 148.21,-1.82 -44.05,537.86 -90.49,851.45 -119.82,1186.19 -40.95,468.05 -96.75,863.01 -104.45,933.59l-58.89 535.99c-106.21,9.41 -160.3,10.4 -275.91,13.2 -115.61,2.8 -263.24,5.67 -440.89,7.54 -178.65,1.87 -289.58,2.8 -333.74,2.8l-379.84 0c0,34.82 -0.93,84.65 -2.8,150.43 -1.87,65.84 -2.8,116.61 -2.8,150.43l0 38.56c3.74,7.54 5.61,20.68 5.61,38.56 416.46,-29.16 769.02,-44.23 1057.66,-44.23 86.46,0 162.64,6.6 230.35,19.75 66.71,12.21 100.59,31.96 100.59,57.37l0 919.44c0,80.85 -16,135.36 -47.02,162.63 -31.02,27.28 -79.91,41.36 -145.7,41.36 -15.07,0 -41.42,-1.86 -79.91,-5.66 -38.56,-3.74 -69.58,-5.61 -91.2,-5.61 -373.23,23.48 -712.64,38.56 -1019.11,44.16 0,111.88 2.8,281.11 8.47,507.71 5.62,226.54 8.42,395.78 8.42,507.66l0 342.21c0,53.57 -5.84,89.15 -16.89,106.21 -11.45,17.7 -57.31,1658.03 -102,1659.55 -175.72,5.96 -369.5,-12.73 -714.4,-9.05 -344.96,3.68 -495.8,-48.13 -672.51,-48.13 -15.07,-21.62 -273.63,-15.96 -283.28,-41.37 -9.81,-26 -182.62,-18.69 -187.46,-38.2 -5.14,-20.57 -47.9,-217.32 -50.53,-252.84 -2.69,-35.57 -63.62,-482.83 -63.97,-498.72 -0.35,-14.89 -30.96,-410.15 -30.61,-454.26 0.29,-43.99 -21.67,-673.86 -20.97,-685.14z"/>
 </g>
</svg>
